<mxfile host="65bd71144e">
    <diagram id="i8tFW0g7PoHVzC0-4u55" name="Page-1">
        <mxGraphModel dx="1052" dy="698" grid="1" gridSize="10" guides="1" tooltips="1" connect="1" arrows="1" fold="1" page="1" pageScale="1" pageWidth="850" pageHeight="1100" math="0" shadow="0">
            <root>
                <mxCell id="0"/>
                <mxCell id="1" parent="0"/>
                <mxCell id="3" value="EmailAdapter" style="verticalAlign=top;align=left;spacingTop=8;spacingLeft=2;spacingRight=12;shape=cube;size=10;direction=south;fontStyle=4;html=1;" vertex="1" parent="1">
                    <mxGeometry x="70" y="140" width="630" height="390" as="geometry"/>
                </mxCell>
                <mxCell id="2" value="Base" style="html=1;" vertex="1" parent="1">
                    <mxGeometry x="315" y="210" width="110" height="50" as="geometry"/>
                </mxCell>
                <mxCell id="7" style="edgeStyle=none;html=1;" edge="1" parent="1" source="4" target="5">
                    <mxGeometry relative="1" as="geometry"/>
                </mxCell>
                <mxCell id="4" value="__main__" style="html=1;" vertex="1" parent="1">
                    <mxGeometry x="315" y="400" width="110" height="50" as="geometry"/>
                </mxCell>
                <mxCell id="8" style="edgeStyle=none;html=1;" edge="1" parent="1" source="5" target="2">
                    <mxGeometry relative="1" as="geometry"/>
                </mxCell>
                <mxCell id="5" value="Freemail" style="html=1;" vertex="1" parent="1">
                    <mxGeometry x="315" y="310" width="110" height="50" as="geometry"/>
                </mxCell>
            </root>
        </mxGraphModel>
    </diagram>
</mxfile>